<svg id="Notifications" xmlns="http://www.w3.org/2000/svg" width="37.62" height="36.721" viewBox="0 0 37.62 36.721">
  <path id="Path_1" data-name="Path 1" d="M35.365,32.131H23.548a4.729,4.729,0,0,1-9.453,0H2.278A2.259,2.259,0,0,1,.151,30.524,2.4,2.4,0,0,1,.86,28a9.152,9.152,0,0,0,3.781-7.344V13.77A14.021,14.021,0,0,1,18.822,0,14.021,14.021,0,0,1,33,13.77v6.885A9.152,9.152,0,0,0,36.783,28a2.134,2.134,0,0,1,.709,2.525A2.259,2.259,0,0,1,35.365,32.131Z" transform="translate(-0.063)" fill="#fff" fill-rule="evenodd"/>
</svg>
