<svg xmlns="http://www.w3.org/2000/svg" width="69.147" height="69.147" viewBox="0 0 69.147 69.147">
  <path id="Icon_awesome-python" data-name="Icon awesome-python" d="M67.879,28.257c-1.188-4.769-3.442-8.365-8.242-8.365H53.448v7.316a10.586,10.586,0,0,1-10.31,10.464H26.655a8.411,8.411,0,0,0-8.242,8.381V61.764c0,4.476,3.889,7.1,8.242,8.381a27.735,27.735,0,0,0,16.484,0c4.152-1.2,8.242-3.627,8.242-8.381V55.482H34.912v-2.1H59.637c4.8,0,6.575-3.349,8.242-8.365C69.608,39.848,69.531,34.878,67.879,28.257ZM44.172,59.665a3.141,3.141,0,1,1-3.1,3.133A3.119,3.119,0,0,1,44.172,59.665ZM25.9,35.6H42.382a8.31,8.31,0,0,0,8.242-8.381V11.5c0-4.476-3.766-7.825-8.242-8.581A50.875,50.875,0,0,0,25.9,2.929c-6.976,1.235-8.242,3.812-8.242,8.581v6.282h16.5v2.1H11.468a10.3,10.3,0,0,0-10.31,8.365,30.912,30.912,0,0,0,0,16.761c1.173,4.877,3.967,8.365,8.767,8.365h5.664V45.851A10.48,10.48,0,0,1,25.9,35.6ZM24.864,13.594a3.141,3.141,0,1,1,3.1-3.133,3.119,3.119,0,0,1-3.1,3.133Z" transform="translate(0 -2.25)" fill="#1c81e7"/>
</svg>
